<mxfile host="Electron" modified="2024-06-02T14:08:28.910Z" agent="Mozilla/5.0 (Windows NT 10.0; Win64; x64) AppleWebKit/537.36 (KHTML, like Gecko) draw.io/24.4.13 Chrome/124.0.6367.207 Electron/30.0.6 Safari/537.36" etag="r-R0Hpl-5Iai5MWAU9u6" version="24.4.13" type="device">
  <diagram name="Page-1" id="QcDr_w4Hfi113VHiCFeI">
    <mxGraphModel dx="1948" dy="820" grid="1" gridSize="10" guides="1" tooltips="1" connect="1" arrows="1" fold="1" page="1" pageScale="1" pageWidth="850" pageHeight="1100" math="0" shadow="0">
      <root>
        <mxCell id="0" />
        <mxCell id="1" parent="0" />
        <mxCell id="y6BPdd14x8QrWojvpIDE-1" value="digital clock" style="rounded=0;whiteSpace=wrap;html=1;" vertex="1" parent="1">
          <mxGeometry x="290" y="50" width="120" height="60" as="geometry" />
        </mxCell>
        <mxCell id="y6BPdd14x8QrWojvpIDE-3" value="Mux3to1" style="rounded=0;whiteSpace=wrap;html=1;" vertex="1" parent="1">
          <mxGeometry x="-100" y="210" width="105" height="60" as="geometry" />
        </mxCell>
        <mxCell id="y6BPdd14x8QrWojvpIDE-5" value="" style="line;strokeWidth=2;html=1;" vertex="1" parent="1">
          <mxGeometry x="-140" y="150" width="857.5" height="10" as="geometry" />
        </mxCell>
        <mxCell id="y6BPdd14x8QrWojvpIDE-6" value="" style="line;strokeWidth=2;direction=south;html=1;" vertex="1" parent="1">
          <mxGeometry x="-52.5" y="150" width="10" height="60" as="geometry" />
        </mxCell>
        <mxCell id="y6BPdd14x8QrWojvpIDE-8" value="" style="line;strokeWidth=2;direction=south;html=1;" vertex="1" parent="1">
          <mxGeometry x="92.5" y="150" width="10" height="60" as="geometry" />
        </mxCell>
        <mxCell id="y6BPdd14x8QrWojvpIDE-11" value="Normal" style="rounded=0;whiteSpace=wrap;html=1;" vertex="1" parent="1">
          <mxGeometry x="47.5" y="210" width="100" height="60" as="geometry" />
        </mxCell>
        <mxCell id="y6BPdd14x8QrWojvpIDE-15" value="" style="edgeStyle=orthogonalEdgeStyle;rounded=0;orthogonalLoop=1;jettySize=auto;html=1;" edge="1" parent="1" source="y6BPdd14x8QrWojvpIDE-13" target="y6BPdd14x8QrWojvpIDE-14">
          <mxGeometry relative="1" as="geometry" />
        </mxCell>
        <mxCell id="y6BPdd14x8QrWojvpIDE-13" value="Alarm" style="rounded=0;whiteSpace=wrap;html=1;" vertex="1" parent="1">
          <mxGeometry x="187.5" y="210" width="105" height="60" as="geometry" />
        </mxCell>
        <mxCell id="y6BPdd14x8QrWojvpIDE-14" value="" style="line;strokeWidth=2;direction=south;html=1;" vertex="1" parent="1">
          <mxGeometry x="235" y="150" width="10" height="60" as="geometry" />
        </mxCell>
        <mxCell id="y6BPdd14x8QrWojvpIDE-17" value="" style="line;strokeWidth=2;direction=south;html=1;" vertex="1" parent="1">
          <mxGeometry x="347.5" y="110" width="10" height="100" as="geometry" />
        </mxCell>
        <mxCell id="y6BPdd14x8QrWojvpIDE-19" value="Counter" style="rounded=0;whiteSpace=wrap;html=1;" vertex="1" parent="1">
          <mxGeometry x="307.5" y="210" width="105" height="60" as="geometry" />
        </mxCell>
        <mxCell id="y6BPdd14x8QrWojvpIDE-21" value="" style="line;strokeWidth=2;direction=south;html=1;" vertex="1" parent="1">
          <mxGeometry x="467.5" y="150" width="10" height="60" as="geometry" />
        </mxCell>
        <mxCell id="y6BPdd14x8QrWojvpIDE-22" value="Bin2led7_2led" style="rounded=0;whiteSpace=wrap;html=1;" vertex="1" parent="1">
          <mxGeometry x="427.5" y="210" width="105" height="60" as="geometry" />
        </mxCell>
        <mxCell id="y6BPdd14x8QrWojvpIDE-23" value="" style="line;strokeWidth=2;direction=south;html=1;" vertex="1" parent="1">
          <mxGeometry x="587.5" y="150" width="10" height="60" as="geometry" />
        </mxCell>
        <mxCell id="y6BPdd14x8QrWojvpIDE-24" value="Led_alram" style="rounded=0;whiteSpace=wrap;html=1;" vertex="1" parent="1">
          <mxGeometry x="547.5" y="210" width="105" height="60" as="geometry" />
        </mxCell>
        <mxCell id="y6BPdd14x8QrWojvpIDE-25" value="" style="line;strokeWidth=2;direction=south;html=1;" vertex="1" parent="1">
          <mxGeometry x="707.5" y="150" width="10" height="60" as="geometry" />
        </mxCell>
        <mxCell id="y6BPdd14x8QrWojvpIDE-26" value="Control" style="rounded=0;whiteSpace=wrap;html=1;" vertex="1" parent="1">
          <mxGeometry x="667.5" y="210" width="105" height="60" as="geometry" />
        </mxCell>
        <mxCell id="y6BPdd14x8QrWojvpIDE-35" value="counter&lt;div&gt;_hour&lt;/div&gt;" style="whiteSpace=wrap;html=1;aspect=fixed;" vertex="1" parent="1">
          <mxGeometry x="-285" y="460" width="60" height="60" as="geometry" />
        </mxCell>
        <mxCell id="y6BPdd14x8QrWojvpIDE-36" value="counter&lt;div&gt;_min&lt;/div&gt;" style="whiteSpace=wrap;html=1;aspect=fixed;" vertex="1" parent="1">
          <mxGeometry x="-200" y="460" width="60" height="60" as="geometry" />
        </mxCell>
        <mxCell id="y6BPdd14x8QrWojvpIDE-37" value="counter&lt;div&gt;_sec&lt;/div&gt;" style="whiteSpace=wrap;html=1;aspect=fixed;" vertex="1" parent="1">
          <mxGeometry x="-95" y="460" width="60" height="60" as="geometry" />
        </mxCell>
        <mxCell id="y6BPdd14x8QrWojvpIDE-38" value="Normal" style="rounded=0;whiteSpace=wrap;html=1;" vertex="1" parent="1">
          <mxGeometry x="-170" y="340" width="100" height="60" as="geometry" />
        </mxCell>
        <mxCell id="y6BPdd14x8QrWojvpIDE-41" value="" style="line;strokeWidth=2;html=1;" vertex="1" parent="1">
          <mxGeometry x="-260" y="430" width="280" height="10" as="geometry" />
        </mxCell>
        <mxCell id="y6BPdd14x8QrWojvpIDE-42" value="" style="line;strokeWidth=2;direction=south;html=1;" vertex="1" parent="1">
          <mxGeometry x="-120" y="400" width="10" height="40" as="geometry" />
        </mxCell>
        <mxCell id="y6BPdd14x8QrWojvpIDE-43" value="" style="line;strokeWidth=2;direction=south;html=1;" vertex="1" parent="1">
          <mxGeometry x="-260" y="430" width="10" height="30" as="geometry" />
        </mxCell>
        <mxCell id="y6BPdd14x8QrWojvpIDE-44" value="" style="line;strokeWidth=2;direction=south;html=1;" vertex="1" parent="1">
          <mxGeometry x="-170" y="430" width="10" height="30" as="geometry" />
        </mxCell>
        <mxCell id="y6BPdd14x8QrWojvpIDE-45" value="" style="line;strokeWidth=2;direction=south;html=1;" vertex="1" parent="1">
          <mxGeometry x="-70" y="430" width="10" height="30" as="geometry" />
        </mxCell>
        <mxCell id="y6BPdd14x8QrWojvpIDE-46" value="Alarm" style="rounded=0;whiteSpace=wrap;html=1;" vertex="1" parent="1">
          <mxGeometry x="215" y="330" width="105" height="60" as="geometry" />
        </mxCell>
        <mxCell id="y6BPdd14x8QrWojvpIDE-47" value="alarm&lt;div&gt;_hour&lt;/div&gt;" style="whiteSpace=wrap;html=1;aspect=fixed;" vertex="1" parent="1">
          <mxGeometry x="147.5" y="450" width="60" height="60" as="geometry" />
        </mxCell>
        <mxCell id="y6BPdd14x8QrWojvpIDE-48" value="&lt;div&gt;alarm&lt;/div&gt;&lt;div&gt;_min&lt;/div&gt;" style="whiteSpace=wrap;html=1;aspect=fixed;" vertex="1" parent="1">
          <mxGeometry x="232.5" y="450" width="60" height="60" as="geometry" />
        </mxCell>
        <mxCell id="y6BPdd14x8QrWojvpIDE-49" value="&lt;div&gt;alarm&lt;/div&gt;&lt;div&gt;_sec&lt;/div&gt;" style="whiteSpace=wrap;html=1;aspect=fixed;" vertex="1" parent="1">
          <mxGeometry x="337.5" y="450" width="60" height="60" as="geometry" />
        </mxCell>
        <mxCell id="y6BPdd14x8QrWojvpIDE-50" value="" style="line;strokeWidth=2;html=1;" vertex="1" parent="1">
          <mxGeometry x="172.5" y="420" width="200" height="10" as="geometry" />
        </mxCell>
        <mxCell id="y6BPdd14x8QrWojvpIDE-51" value="" style="line;strokeWidth=2;direction=south;html=1;" vertex="1" parent="1">
          <mxGeometry x="262.5" y="390" width="10" height="40" as="geometry" />
        </mxCell>
        <mxCell id="y6BPdd14x8QrWojvpIDE-52" value="" style="line;strokeWidth=2;direction=south;html=1;" vertex="1" parent="1">
          <mxGeometry x="172.5" y="420" width="10" height="30" as="geometry" />
        </mxCell>
        <mxCell id="y6BPdd14x8QrWojvpIDE-53" value="" style="line;strokeWidth=2;direction=south;html=1;" vertex="1" parent="1">
          <mxGeometry x="262.5" y="420" width="10" height="30" as="geometry" />
        </mxCell>
        <mxCell id="y6BPdd14x8QrWojvpIDE-54" value="" style="line;strokeWidth=2;direction=south;html=1;" vertex="1" parent="1">
          <mxGeometry x="362.5" y="420" width="10" height="30" as="geometry" />
        </mxCell>
        <mxCell id="y6BPdd14x8QrWojvpIDE-55" value="compare&lt;div&gt;59&lt;/div&gt;" style="whiteSpace=wrap;html=1;aspect=fixed;" vertex="1" parent="1">
          <mxGeometry x="-12.5" y="460" width="60" height="60" as="geometry" />
        </mxCell>
        <mxCell id="y6BPdd14x8QrWojvpIDE-56" value="" style="line;strokeWidth=2;direction=south;html=1;" vertex="1" parent="1">
          <mxGeometry x="17.5" y="430" width="10" height="30" as="geometry" />
        </mxCell>
        <mxCell id="y6BPdd14x8QrWojvpIDE-58" value="&lt;div&gt;C_C_hour&lt;/div&gt;" style="whiteSpace=wrap;html=1;aspect=fixed;" vertex="1" parent="1">
          <mxGeometry x="440" y="440" width="60" height="60" as="geometry" />
        </mxCell>
        <mxCell id="y6BPdd14x8QrWojvpIDE-59" value="&lt;div&gt;C_C__min&lt;/div&gt;" style="whiteSpace=wrap;html=1;aspect=fixed;" vertex="1" parent="1">
          <mxGeometry x="525" y="440" width="60" height="60" as="geometry" />
        </mxCell>
        <mxCell id="y6BPdd14x8QrWojvpIDE-60" value="&lt;div&gt;C_C_sec&lt;/div&gt;" style="whiteSpace=wrap;html=1;aspect=fixed;" vertex="1" parent="1">
          <mxGeometry x="630" y="440" width="60" height="60" as="geometry" />
        </mxCell>
        <mxCell id="y6BPdd14x8QrWojvpIDE-61" value="counter" style="rounded=0;whiteSpace=wrap;html=1;" vertex="1" parent="1">
          <mxGeometry x="555" y="320" width="100" height="60" as="geometry" />
        </mxCell>
        <mxCell id="y6BPdd14x8QrWojvpIDE-62" value="" style="line;strokeWidth=2;html=1;" vertex="1" parent="1">
          <mxGeometry x="465" y="410" width="280" height="10" as="geometry" />
        </mxCell>
        <mxCell id="y6BPdd14x8QrWojvpIDE-63" value="" style="line;strokeWidth=2;direction=south;html=1;" vertex="1" parent="1">
          <mxGeometry x="605" y="380" width="10" height="40" as="geometry" />
        </mxCell>
        <mxCell id="y6BPdd14x8QrWojvpIDE-64" value="" style="line;strokeWidth=2;direction=south;html=1;" vertex="1" parent="1">
          <mxGeometry x="465" y="410" width="10" height="30" as="geometry" />
        </mxCell>
        <mxCell id="y6BPdd14x8QrWojvpIDE-65" value="" style="line;strokeWidth=2;direction=south;html=1;" vertex="1" parent="1">
          <mxGeometry x="555" y="410" width="10" height="30" as="geometry" />
        </mxCell>
        <mxCell id="y6BPdd14x8QrWojvpIDE-66" value="" style="line;strokeWidth=2;direction=south;html=1;" vertex="1" parent="1">
          <mxGeometry x="655" y="410" width="10" height="30" as="geometry" />
        </mxCell>
        <mxCell id="y6BPdd14x8QrWojvpIDE-67" value="compare&lt;div&gt;59&lt;/div&gt;" style="whiteSpace=wrap;html=1;aspect=fixed;" vertex="1" parent="1">
          <mxGeometry x="712.5" y="440" width="60" height="60" as="geometry" />
        </mxCell>
        <mxCell id="y6BPdd14x8QrWojvpIDE-68" value="" style="line;strokeWidth=2;direction=south;html=1;" vertex="1" parent="1">
          <mxGeometry x="742.5" y="410" width="10" height="30" as="geometry" />
        </mxCell>
        <mxCell id="y6BPdd14x8QrWojvpIDE-69" value="Led_alram" style="rounded=0;whiteSpace=wrap;html=1;" vertex="1" parent="1">
          <mxGeometry x="-165" y="600" width="105" height="60" as="geometry" />
        </mxCell>
        <mxCell id="y6BPdd14x8QrWojvpIDE-70" value="" style="line;strokeWidth=2;html=1;" vertex="1" parent="1">
          <mxGeometry x="-215" y="700" width="200" height="10" as="geometry" />
        </mxCell>
        <mxCell id="y6BPdd14x8QrWojvpIDE-71" value="" style="line;strokeWidth=2;direction=south;html=1;" vertex="1" parent="1">
          <mxGeometry x="-125" y="660" width="10" height="40" as="geometry" />
        </mxCell>
        <mxCell id="y6BPdd14x8QrWojvpIDE-73" value="&lt;div&gt;compare&lt;/div&gt;&lt;div&gt;_hour&lt;/div&gt;" style="whiteSpace=wrap;html=1;aspect=fixed;" vertex="1" parent="1">
          <mxGeometry x="-240" y="730" width="60" height="60" as="geometry" />
        </mxCell>
        <mxCell id="y6BPdd14x8QrWojvpIDE-74" value="compare&lt;div&gt;&lt;span style=&quot;background-color: initial;&quot;&gt;_min&lt;/span&gt;&lt;br&gt;&lt;/div&gt;" style="whiteSpace=wrap;html=1;aspect=fixed;" vertex="1" parent="1">
          <mxGeometry x="-155" y="730" width="60" height="60" as="geometry" />
        </mxCell>
        <mxCell id="y6BPdd14x8QrWojvpIDE-75" value="and" style="whiteSpace=wrap;html=1;aspect=fixed;" vertex="1" parent="1">
          <mxGeometry x="-50" y="730" width="60" height="60" as="geometry" />
        </mxCell>
        <mxCell id="y6BPdd14x8QrWojvpIDE-77" value="" style="line;strokeWidth=2;direction=south;html=1;" vertex="1" parent="1">
          <mxGeometry x="-215" y="700" width="10" height="30" as="geometry" />
        </mxCell>
        <mxCell id="y6BPdd14x8QrWojvpIDE-78" value="" style="line;strokeWidth=2;direction=south;html=1;" vertex="1" parent="1">
          <mxGeometry x="-125" y="700" width="10" height="30" as="geometry" />
        </mxCell>
        <mxCell id="y6BPdd14x8QrWojvpIDE-79" value="" style="line;strokeWidth=2;direction=south;html=1;" vertex="1" parent="1">
          <mxGeometry x="-25" y="700" width="10" height="30" as="geometry" />
        </mxCell>
        <mxCell id="y6BPdd14x8QrWojvpIDE-80" value="" style="line;strokeWidth=2;direction=south;html=1;" vertex="1" parent="1">
          <mxGeometry x="-140" y="150" width="10" height="50" as="geometry" />
        </mxCell>
        <mxCell id="y6BPdd14x8QrWojvpIDE-82" value="1Hz" style="rounded=0;whiteSpace=wrap;html=1;" vertex="1" parent="1">
          <mxGeometry x="-225" y="210" width="120" height="60" as="geometry" />
        </mxCell>
      </root>
    </mxGraphModel>
  </diagram>
</mxfile>
